<?xml version="1.0" encoding="UTF-8" standalone="no"?>
<!-- Created with Inkscape (http://www.inkscape.org/) -->

<svg
   width="256"
   height="256"
   viewBox="0 0 67.733333 67.733333"
   version="1.1"
   id="svg5"
   sodipodi:docname="icon.svg"
   inkscape:version="1.2.2 (b0a8486541, 2022-12-01)"
   xmlns:inkscape="http://www.inkscape.org/namespaces/inkscape"
   xmlns:sodipodi="http://sodipodi.sourceforge.net/DTD/sodipodi-0.dtd"
   xmlns="http://www.w3.org/2000/svg"
   xmlns:svg="http://www.w3.org/2000/svg">
  <sodipodi:namedview
     id="namedview2710"
     pagecolor="#ffffff"
     bordercolor="#000000"
     borderopacity="0.25"
     inkscape:showpageshadow="2"
     inkscape:pageopacity="0.0"
     inkscape:pagecheckerboard="0"
     inkscape:deskcolor="#d1d1d1"
     showgrid="false"
     inkscape:zoom="1.4666941"
     inkscape:cx="97.498173"
     inkscape:cy="128.17942"
     inkscape:window-width="1366"
     inkscape:window-height="700"
     inkscape:window-x="0"
     inkscape:window-y="31"
     inkscape:window-maximized="1"
     inkscape:current-layer="layer1" />
  <defs
     id="defs2">
    <clipPath
       clipPathUnits="userSpaceOnUse"
       id="clipPath701">
      <g
         id="g705"
         transform="matrix(81.079747,35.280061,-35.280061,81.079747,427.89061,-189.26635)">
        <path
           id="path703"
           style="fill:#550000;stroke-width:0.264583"
           d="M 12.651892,7.1301634 A 6.35,6.35 0 0 1 5.5885498,12.65418 6.35,6.35 0 0 1 0.04358652,5.6072693 6.35,6.35 0 0 1 7.0740048,0.04140956 6.35,6.35 0 0 1 12.660712,7.0552723" />
      </g>
    </clipPath>
    <clipPath
       clipPathUnits="userSpaceOnUse"
       id="clipPath707">
      <g
         id="g711"
         transform="translate(0.52916667,0.19775024)">
        <path
           id="path709"
           style="fill:#550000;stroke-width:0.264583"
           d="M 12.651892,7.1301634 A 6.35,6.35 0 0 1 5.5885498,12.65418 6.35,6.35 0 0 1 0.04358652,5.6072693 6.35,6.35 0 0 1 7.0740048,0.04140956 6.35,6.35 0 0 1 12.660712,7.0552723" />
      </g>
    </clipPath>
    <clipPath
       clipPathUnits="userSpaceOnUse"
       id="clipPath713">
      <g
         id="g717">
        <path
           id="path715"
           style="fill:#550000;stroke-width:0.264583"
           d="M 12.651892,7.1301634 A 6.35,6.35 0 0 1 5.5885498,12.65418 6.35,6.35 0 0 1 0.04358652,5.6072693 6.35,6.35 0 0 1 7.0740048,0.04140956 6.35,6.35 0 0 1 12.660712,7.0552723" />
      </g>
    </clipPath>
  </defs>
  <g
     id="layer1">
    <rect
       style="display:none;fill:#550000;stroke-width:0.264583"
       id="rect522"
       width="12.7"
       height="12.7"
       x="0"
       y="0" />
    <path
       id="path576"
       style="fill:#c83737;stroke-width:0.264583"
       d="M 12.651892,7.130163 A 6.3499999,6.3499999 0 0 1 5.5885496,12.65418 6.3499999,6.3499999 0 0 1 0.04358652,5.6072691 6.3499999,6.3499999 0 0 1 7.0740046,0.04140926 6.3499999,6.3499999 0 0 1 12.660712,7.0552722"
       clip-path="url(#clipPath713)"
       transform="matrix(5.3333336,0,0,5.3333337,-4.4998758e-7,-1.5533431e-6)" />
    <g
       id="g237"
       style="fill:#ffffff"
       transform="matrix(5.3333336,0,0,5.3333337,-2.8222228,-1.0546696)"
       clip-path="url(#clipPath707)">
      <path
         d="M 12.697596,11.965688 V 0.00953199 L 4.2956487,0.00550854 9.1574324,11.965332 Z m -0.285562,-0.165051 c 0.01702,6.9e-4 0.03082,0.0073 0.03235,0.01438 v 2.7e-5 c 0.0041,0.02078 0.0052,0.04168 0.0024,0.06228 9.5e-5,0.0012 -1.49e-4,0.0024 -6.74e-4,0.0035 -0.0036,0.0078 -0.02207,0.0132 -0.04059,0.01349 -0.03752,0.0013 -0.07525,-10e-4 -0.112909,-6.29e-4 -0.05137,-3.19e-4 -0.103612,0.0034 -0.154384,-0.002 -0.01455,-0.01591 -0.0099,-0.03312 -0.01244,-0.0497 2.29e-4,-0.0095 -0.0028,-0.01941 7.04e-4,-0.02877 0.0012,-0.0032 0.0031,-0.0063 0.0062,-0.0092 0.04356,-0.0064 0.09082,-0.004 0.136324,-0.0042 0.04762,5.79e-4 0.0953,-0.0016 0.14282,8.43e-4 z m -0.0088,-0.269151 c 0.01409,5.02e-4 0.03075,0.0043 0.0328,0.01111 l -10e-7,-2.9e-5 c 0.0062,0.02208 0.0049,0.04433 0.0037,0.06632 -6e-5,0.0012 -1.2e-4,0.0025 -1.82e-4,0.0037 0.0014,0.01019 -0.02062,0.01774 -0.04297,0.01676 -0.08335,5.22e-4 -0.166795,9.85e-4 -0.250206,-4.36e-4 -0.02291,2.61e-4 -0.03449,-0.01092 -0.03457,-0.01949 -0.0023,-0.01983 -0.0044,-0.0398 -0.0033,-0.05976 8.8e-5,-0.0016 -1.47e-4,-0.0033 6e-6,-0.0049 -7e-6,-0.0097 0.02107,-0.01573 0.04084,-0.01637 0.04519,-0.0021 0.09054,0.0018 0.135881,0.0021 0.03938,6.13e-4 0.0788,-10e-4 0.118004,9.88e-4 z m 0.02499,-0.273145 c -4e-6,3.55e-4 2.82e-4,5.75e-4 2.27e-4,9.71e-4 10e-4,0.01291 0.0024,0.02586 0.0028,0.03876 4.31e-4,0.01287 -6.8e-5,0.02569 -0.0028,0.03839 -0.0045,0.01287 -0.03782,0.01287 -0.06034,0.01302 -0.08842,-4.88e-4 -0.176778,8.63e-4 -0.265222,-0.0012 -0.0023,-0.0049 -0.0037,-0.0099 -0.0052,-0.0149 -0.0095,-0.02873 -0.0095,-0.05809 -0.0045,-0.08713 0.0094,-5.31e-4 0.01884,-6.45e-4 0.02826,-10e-4 0.07701,-0.003 0.154978,-7.58e-4 0.232329,-0.0023 l -2e-6,-4.6e-5 -6e-6,-1.89e-4 c 0.02635,1.69e-4 0.07459,-0.0013 0.07446,0.01574 z m -0.01056,-0.307624 c 0.004,0.01784 0.0056,0.03579 0.005,0.05365 -3.64e-4,0.01424 -0.002,0.02842 -0.0052,0.04244 -0.111108,0.0076 -0.225625,0.0074 -0.337393,-6e-4 -0.009,-0.02839 -0.01104,-0.05727 -0.0092,-0.08608 9e-6,-3.2e-5 1.5e-5,-4.8e-5 2.7e-5,-7.9e-5 l 2e-6,-1.27e-4 c 0.0029,-0.0074 0.0021,-0.01909 0.02328,-0.01967 0.08202,-0.0059 0.16604,-0.0023 0.249043,-0.0035 l -2e-6,-6.7e-5 -10e-7,-3.2e-5 c 0.02574,5.71e-4 0.06749,-0.0019 0.07445,0.01403 z m -0.08648,-0.341028 c 0.02991,8.9e-5 0.08238,4.23e-4 0.07965,0.02108 0.0013,0.0164 0.0027,0.03282 0.0029,0.04916 1.47e-4,0.0163 -8.79e-4,0.03255 -0.0047,0.04863 -0.09179,0.0055 -0.184811,0.0017 -0.277111,0.0028 -0.02708,-3.23e-4 -0.07048,-2.9e-4 -0.07479,-0.01754 -0.0087,-0.02509 -0.0076,-0.05074 -0.0078,-0.07618 -8e-6,-6.04e-4 -6e-6,-0.0012 -1.1e-5,-0.0018 -0.0021,-0.01268 0.01739,-0.02478 0.04427,-0.02466 0.07883,-0.0033 0.15857,0.0013 0.237703,-0.0016 l 5e-6,1.25e-4 z m 0.05355,-0.345656 4e-6,1.33e-4 c 0.03741,0.03549 0.01166,0.07671 0.02152,0.114371 -1.5e-5,3e-6 -3.1e-5,9e-6 -3.5e-5,1.8e-5 4e-6,1.2e-5 5e-6,3.6e-5 9e-6,3.6e-5 -0.03817,0.01648 -0.09147,0.01314 -0.13864,0.01361 -0.07593,-7.5e-4 -0.15196,0.002 -0.227662,-0.0039 -0.01078,-0.03991 -0.02405,-0.08254 -0.0035,-0.122186 h 1.5e-5 l 2.7e-5,-5.5e-5 c 0.04841,-0.0045 0.09848,-0.0011 0.147475,-0.0039 0.06667,-0.0042 0.133675,0.002 0.20072,0.0018 z M 12.107582,9.8881758 c 0.06577,0.00164 0.131548,9.791e-4 0.197243,9.478e-4 0.0061,1.209e-4 0.01211,1.82e-4 0.01817,2.653e-4 0.02108,2.21e-4 0.04242,9.726e-4 0.0606,0.00713 l 1e-6,3.96e-5 2e-6,8.24e-5 c 0.0014,0.00305 0.0017,0.00614 0.0028,0.00921 0.0098,0.029837 0.0048,0.060353 0.0071,0.090221 1.4e-5,2.132e-4 -3e-6,4.263e-4 1.4e-5,6.374e-4 3.1e-4,0.00163 3.97e-4,0.00333 2.95e-4,0.00505 -7.89e-4,0.01209 -0.01238,0.0256 -0.03892,0.02579 -0.08351,0.0018 -0.167278,-3.56e-4 -0.250964,7.4e-4 -0.02767,-7.85e-4 -0.05859,0.002 -0.08332,-0.0065 -0.01277,-0.01562 -0.01501,-0.032221 -0.0159,-0.048903 -3.21e-4,-0.0067 -4.03e-4,-0.013391 -8.41e-4,-0.020044 -2.19e-4,-0.00332 -5.04e-4,-0.00662 -9.82e-4,-0.00992 3e-6,-9.7e-6 -10e-7,-1.95e-5 2e-6,-1.95e-5 -5e-6,-1.98e-5 -2e-6,-3.94e-5 -7e-6,-5.91e-5 0.0011,-0.016654 -0.0082,-0.038801 0.0221,-0.04967 0.02479,-0.00717 0.05516,-0.00458 0.08265,-0.00499 z m 0.26476,-0.3987035 -10e-7,-2.14e-5 c 0.01003,0.039624 0.01115,0.079138 0.0086,0.1182228 -1.89e-4,0.00291 -2.24e-4,0.00581 -4.35e-4,0.00872 0.0013,0.012095 -0.02215,0.016709 -0.03991,0.019635 -0.07371,0.00799 -0.149211,-0.00611 -0.223198,4.558e-4 -0.04287,0.00354 -0.08664,2.44e-4 -0.127325,-0.00848 -8.1e-4,-0.00321 -0.0016,-0.00644 -0.0024,-0.00966 -0.0098,-0.039798 -0.01791,-0.081101 -0.0035,-0.1206553 0.02582,-0.013561 0.06781,-0.00902 0.101361,-0.00998 0.09572,0.00429 0.191169,-0.00181 0.286806,0.00178 z m -0.06374,-0.4358607 2e-6,6.92e-5 c 0.0038,-1.09e-5 0.0076,2.277e-4 0.01117,6.722e-4 0.02542,0.00303 0.04676,0.016698 0.04739,0.031468 0.0078,0.038836 0.003,0.077559 0.0053,0.1160253 l -3.9e-5,1.59e-5 2e-6,4.48e-5 c -0.03876,0.01944 -0.09396,0.011661 -0.141865,0.012816 -0.08735,-0.00166 -0.175831,0.00718 -0.262427,-0.00435 -0.02207,-0.02639 -0.01338,-0.056164 -0.01791,-0.084253 1.8e-5,-3.783e-4 -2e-5,-7.721e-4 6e-6,-0.00117 1.32e-4,-0.00427 -1.49e-4,-0.00861 -5.94e-4,-0.012977 -0.0015,-0.015328 -0.0041,-0.031065 0.0076,-0.044846 2e-5,-2.29e-5 2.3e-5,-4.6e-5 3.8e-5,-6.9e-5 0.0191,-0.017328 0.05989,-0.014355 0.09164,-0.014923 0.08654,0.00121 0.173197,-0.00114 0.259831,0.00147 z m 0.0024,-0.4646208 -3e-6,-10e-5 c 0.0077,8.981e-4 0.01519,0.00305 0.02183,0.00572 0.01173,0.00456 0.02044,0.01127 0.02025,0.019899 0.0036,0.019466 0.0055,0.038986 0.006,0.058455 5.33e-4,0.019405 -2.38e-4,0.038756 -0.0018,0.057971 9.39e-4,0.014629 -0.02121,0.026373 -0.0453,0.028116 -0.04123,0.00417 -0.0835,0.00118 -0.125291,0.00163 -0.07158,-2.568e-4 -0.143503,0.00712 -0.214833,-6.096e-4 -0.028,-0.00268 -0.04556,-0.019366 -0.04607,-0.034666 -0.0016,-0.010543 -0.0028,-0.021123 -0.0037,-0.031727 -0.0027,-0.031735 -0.0024,-0.063677 0.003,-0.095444 0.06111,-0.020489 0.134093,-0.013674 0.202266,-0.01439 0.06128,8.007e-4 0.12344,-0.00296 0.18389,0.00515 z m 0.02677,-0.4843572 7e-6,2.155e-4 c 0.0091,0.048268 0.0098,0.097152 0.0031,0.144701 -2.2e-5,2.62e-5 -4.3e-5,5.26e-5 -8.5e-5,7.9e-5 -4e-6,2.62e-5 -8e-6,5.26e-5 -1.1e-5,1.055e-4 -0.01881,0.025173 -0.07162,0.016967 -0.108447,0.018645 -0.10746,-0.00252 -0.215321,0.00401 -0.322715,-0.00344 -0.02359,-0.030934 -0.0177,-0.065365 -0.02164,-0.098275 -2.49e-4,-0.017761 -0.0039,-0.037102 9.94e-4,-0.054912 0.0027,-0.010781 0.0087,-0.021007 0.02019,-0.029997 0.109262,-0.0058 0.220119,-2.212e-4 0.330007,-0.00255 0.03504,-8.789e-4 0.08972,-0.00202 0.09865,0.025439 z m -0.05617,-0.5715502 c 0.01408,0.00155 0.02685,0.00509 0.03469,0.013884 l -9e-6,-3.285e-4 -2e-6,-5.89e-5 c 0.0036,0.00946 0.0058,0.019039 0.0072,0.028647 0.0057,0.033912 0.0014,0.068379 0.0043,0.102043 1.41e-4,0.0017 1.92e-4,0.00352 2.88e-4,0.00531 0.001,0.019954 -0.0034,0.045183 -0.03955,0.050168 -0.08466,0.00857 -0.171329,1.69e-5 -0.256793,0.00251 -0.05387,-5.923e-4 -0.111475,0.00647 -0.162822,-0.00886 -0.01973,-0.047328 -0.01351,-0.096732 -0.01856,-0.1455274 -5e-5,-4.852e-4 -3.9e-5,-9.67e-4 -8.8e-5,-0.00144 -3.91e-4,-0.00248 -6.06e-4,-0.00508 -6.88e-4,-0.00777 -4.21e-4,-0.018797 0.0088,-0.041047 0.04482,-0.039463 0.11249,-0.00336 0.225548,-4.5e-6 0.338237,-0.00145 0.01479,0.0012 0.03269,5.034e-4 0.04869,0.00233 z m 0.01521,-0.5940537 c 0.0081,0.022908 0.01176,0.046199 0.01316,0.069581 0.0023,0.037081 -8.44e-4,0.074346 -4.8e-5,0.1107724 0.0014,0.030027 -0.04819,0.036905 -0.08426,0.034261 -0.113628,-0.00435 -0.22718,-0.00108 -0.340609,-0.0016 -0.03308,0.00342 -0.05379,-0.015668 -0.0606,-0.034604 -9.96e-4,-0.00274 -0.0017,-0.00548 -0.0021,-0.00815 -0.0098,-0.057055 -0.01065,-0.1151011 -0.0034,-0.1727345 0.103178,-0.019774 0.212452,-0.00643 0.318641,-0.012082 0.05306,3.744e-4 0.11173,-0.00449 0.159456,0.014703 l -4e-6,-1.554e-4 z m -0.10831,-0.6730554 c 0.03179,0.0043 0.07401,-5.02e-5 0.09562,0.020507 l 2e-6,7.1e-5 c 0.0022,0.00727 0.0038,0.014605 0.0048,0.021962 0.0032,0.021956 0.0021,0.044109 0.0033,0.066014 l 1e-6,3.48e-5 10e-7,3.51e-5 c -4.95e-4,0.048356 0.01492,0.099945 -0.02165,0.1431494 -0.150887,1.008e-4 -0.30175,-0.00113 -0.452612,6.126e-4 -0.02408,-0.019882 -0.04363,-0.043028 -0.04075,-0.069315 l -4e-6,-6.9e-5 c 4e-6,-1.74e-5 -8e-6,-3.46e-5 -2e-6,-3.46e-5 -2.1e-5,-0.00729 -3.91e-4,-0.014643 -9.22e-4,-0.022024 -0.0016,-0.022253 -0.0049,-0.044841 -0.006,-0.067304 -0.0015,-0.030113 7.99e-4,-0.059989 0.01617,-0.0885 0.13316,-0.00953 0.268086,-0.00658 0.402108,-0.00512 z m -0.04266,-0.7266214 c 0.0088,-3.96e-4 0.01726,5.2e-6 0.02605,4.804e-4 0.03535,0.00188 0.06919,0.010791 0.09753,0.027425 l -3e-6,-7.78e-5 3e-6,7.78e-5 c -1.06e-4,0.018933 6.47e-4,0.037849 0.0016,0.056742 9.6e-4,0.01891 0.0022,0.037801 0.003,0.056626 0.0017,0.037486 0.0018,0.07474 -0.0041,0.1115407 -0.02703,0.030809 -0.08462,0.026974 -0.129048,0.027802 -0.106358,-0.0016 -0.212526,9.47e-4 -0.318682,-9.473e-4 -0.03589,-1.958e-4 -0.08443,-0.00968 -0.08575,-0.041765 -0.0031,-0.038103 -0.0099,-0.077221 -0.01185,-0.1162433 -0.0022,-0.039226 1.12e-4,-0.078363 0.01493,-0.1162522 0.134597,-0.00979 0.270925,-0.00405 0.406448,-0.00541 z m -0.01152,-0.7986118 c 0.03097,0.00317 0.07256,-0.00161 0.0968,0.016032 0.0035,0.00251 0.0065,0.00551 0.0092,0.00901 0.01927,0.082117 0.0063,0.1645995 0.01272,0.2453027 l 10e-7,4.17e-5 c -0.01553,0.011787 -0.03121,0.02363 -0.04679,0.035279 -0.147888,0.00163 -0.295956,5.667e-4 -0.444075,-0.00126 -0.04753,0.00153 -0.08147,-0.034434 -0.07928,-0.068147 -0.0024,-0.076267 -0.0268,-0.1570941 0.007,-0.2314301 0.147506,-0.0082 0.296246,-0.00408 0.444523,-0.00483 z M 11.813417,3.8466332 c 0.13261,0.00377 0.265757,-0.00693 0.397881,0.010135 0.01323,0.090983 0.01429,0.1815602 0.01412,0.2707358 4e-4,0.00573 5.2e-5,0.011986 -0.0012,0.018164 -0.0037,0.018338 -0.0157,0.035563 -0.04271,0.034412 -0.134323,0.00541 -0.269843,-0.00239 -0.404209,0.00563 -0.04925,-8.582e-4 -0.129153,0.00553 -0.144633,-0.045761 -0.01417,-0.065968 -0.0128,-0.1332054 -0.01777,-0.2005629 -4.47e-4,-0.00776 -6.33e-4,-0.016162 -4.4e-5,-0.024604 0.0017,-0.025345 0.01071,-0.050997 0.04172,-0.06036 0.04998,-0.012336 0.104605,-0.00661 0.156883,-0.00778 z M 12.193231,2.874661 c -0.0032,0.1036651 0.01606,0.2069816 0.0033,0.3076831 -7.32e-4,0.00584 -0.0012,0.011654 -0.0021,0.017461 -0.03576,0.035664 -0.101333,0.028445 -0.151835,0.033635 -0.149052,-0.00147 -0.298524,0.00716 -0.447769,-0.00982 -0.0486,-0.084321 -0.03428,-0.1788244 -0.04367,-0.2696411 l -4e-6,-6.42e-5 c 0.0026,-0.029819 -0.01068,-0.075436 0.03081,-0.087896 0.06775,-0.023541 0.144722,-0.010982 0.217113,-0.011761 0.131426,0.00481 0.26665,-0.021346 0.394159,0.020386 z M 12.086822,1.7303368 c 0.05448,0.00264 0.07629,0.054801 0.07367,0.097383 2.95e-4,0.079609 0.01339,0.1612335 0.0044,0.2393121 -0.003,0.02587 -0.0083,0.05136 -0.01694,0.076285 -0.100491,0.012287 -0.203155,0.00491 -0.304599,0.00613 -0.110777,-0.00308 -0.222572,0.00868 -0.333206,-0.012805 -0.02021,-0.089041 -0.02477,-0.1802802 -0.02968,-0.272002 -5.19e-4,-0.014178 -6.86e-4,-0.028843 -1.87e-4,-0.043451 9.42e-4,-0.029414 0.0058,-0.058441 0.02628,-0.081436 0.0614,-0.020131 0.130559,-0.011417 0.195465,-0.013938 0.12845,0.0038 0.256873,-0.00584 0.385065,0.00454 z m 0.0379,-1.24242447 c 0.0063,0.13867625 0.0057,0.27527285 0.01213,0.41011771 -0.05561,0.0378271 -0.121419,0.0424323 -0.188123,0.04158 -0.02681,-3.3829e-4 -0.05352,-0.001555 -0.0799,-0.001844 -0.01323,-1.5202e-4 -0.02609,-9.125e-5 -0.03911,4.3464e-4 -0.11562,-0.00548 -0.232611,0.0130606 -0.34744,-0.0116645 -0.0671,-0.0184989 -0.06739,-0.0955734 -0.0723,-0.14870375 -0.002,-0.0986869 -0.02848,-0.2038544 0.0044,-0.29992274 0.08888,-0.0535954 0.204497,-0.034022 0.306825,-0.0388346 0.134402,0.00745 0.281115,-0.0246186 0.403757,0.0488806 z M 5.2500852,0.92759443 C 5.1647413,0.90847482 5.1323746,0.81656534 5.1076633,0.75435346 5.0924031,0.70814521 5.0703743,0.65894311 5.0544697,0.61068585 5.0383645,0.56197555 5.028301,0.51420256 5.037648,0.47145831 c 0.056513,-0.0284421 0.1348241,-0.0214872 0.2052162,-0.0247518 0.1282462,0.001958 0.2571405,0.004779 0.3853332,0.006952 0.038732,-0.002125 0.093437,0.0155783 0.1152205,0.0580512 0.054153,0.11912554 0.094079,0.23929404 0.12282,0.35568734 6.2e-6,8.043e-5 -1.47e-5,1.3404e-4 -1.2e-6,1.942e-4 7.76e-5,3.2895e-4 1.838e-4,6.5757e-4 2.771e-4,0.001011 0.00629,0.0762511 -0.091098,0.0676813 -0.1548696,0.0676526 -0.1546861,-0.005532 -0.3034177,0.008768 -0.4617616,-0.008676 z M 5.7224789,2.1454105 C 5.6542981,2.1515767 5.6134582,2.0747329 5.5941419,2.0271212 5.5769359,1.9795998 5.5536683,1.9297862 5.536227,1.8805413 5.5186666,1.8309655 5.5072164,1.781965 5.5142408,1.7364505 c 0.1341032,-0.027067 0.2904859,-0.00783 0.434446,-0.01428 0.071048,0.00412 0.1538676,-0.015335 0.2229342,0.042677 0.031442,0.057475 0.053516,0.1156214 0.072452,0.1735601 0.018814,0.057732 0.034647,0.1152697 0.053808,0.1718271 -0.00922,0.011252 -0.018036,0.022671 -0.027194,0.034117 -0.1810837,0.00387 -0.3641186,0.00394 -0.5478282,0.00108 z m 0.5376139,1.0827042 c -0.065164,-0.0032 -0.1343147,0.00355 -0.202093,-0.027033 -0.030114,-0.04919 -0.056178,-0.1001053 -0.076643,-0.1513048 -0.020465,-0.051419 -0.034809,-0.1031371 -0.041484,-0.1536323 -0.00583,-0.048452 0.057784,-0.050371 0.1031607,-0.052312 0.1263941,-0.00214 0.2544079,-3.929e-4 0.3814322,-8.354e-4 0.045465,-6.378e-4 0.1089537,0.00695 0.1397052,0.050716 0.020774,0.039734 0.036145,0.079695 0.049878,0.1195628 0.013648,0.039547 0.025717,0.07901 0.03992,0.1181291 0.00725,0.029766 0.032488,0.078696 -0.012651,0.084951 -0.1201686,0.019693 -0.2539479,0.00863 -0.3812725,0.011758 z M 6.472761,4.1808146 C 6.420682,4.1774546 6.397002,4.1291616 6.38312,4.0971996 6.369457,4.0620896 6.353594,4.0264626 6.34011,3.9908398 6.326547,3.9551698 6.315312,3.9195068 6.311072,3.8843217 c -0.00316,-0.036335 0.050267,-0.036219 0.085675,-0.038978 0.1322325,-0.0023 0.2659559,-8.906e-4 0.3991174,-6.241e-4 0.040412,-0.00262 0.1006883,0.013079 0.1178612,0.051676 0.010067,0.023032 0.019206,0.046045 0.027414,0.06899 0.024912,0.067936 0.044221,0.1354021 0.067796,0.2022244 C 6.9331726,4.190708 6.8439165,4.189582 6.7543138,4.182476 6.6576348,4.173956 6.5695299,4.189726 6.4727635,4.180806 Z m 0.2869691,0.8522007 c -0.030624,-0.045501 -0.05689,-0.092818 -0.076765,-0.1404806 -0.020099,-0.04815 -0.033673,-0.096652 -0.038706,-0.1439318 0.1112439,-0.021547 0.2414818,-0.00539 0.3609772,-0.010555 0.064977,0.00398 0.1376205,-0.010843 0.2014411,0.024982 0.012435,0.021027 0.022596,0.042162 0.031341,0.063376 0.025569,0.062605 0.037916,0.1257607 0.062845,0.1873925 -0.030869,0.020055 -0.072502,0.029439 -0.1191926,0.027786 -0.140088,-0.0014 -0.2779495,0.00473 -0.4219776,-0.00855 z M 7.6735952,5.1477494 C 7.232452,3.7800551 6.70473,2.1480559 6.061983,0.16719341 c 1.650747,-0.006995 3.3051412,-6.7976e-4 4.957638,-5.4708e-4 0.02784,0.35580125 0.05333,0.6999478 0.08771,1.03217287 0.06161,0.756867 0.119431,1.4571783 0.17186,2.1069102 0.01617,0.3227633 0.05408,0.6336376 0.07589,0.9335733 0.0074,0.1985638 0.0348,0.3922818 0.04821,0.5815785 0.01037,0.110897 0.01147,0.2201955 0.02398,0.3281839 -0.04822,0.00184 -0.09652,0.00366 -0.144921,0.00384 L 8.3022193,5.1519619 C 8.092694,5.1500008 7.8852104,5.1560933 7.6736098,5.1477511 Z M 7.1815709,5.8117632 c -0.039595,-0.00117 -0.079619,0.00111 -0.1209516,-0.00875 -0.026573,-0.019598 -0.041343,-0.04281 -0.052758,-0.066467 -7.296e-4,-0.0015 -0.00136,-0.00301 -0.00204,-0.00452 -0.00144,-0.00311 -0.00288,-0.0062 -0.00422,-0.0093 -0.00127,-0.00292 -0.00248,-0.00582 -0.0037,-0.00872 -0.00269,-0.00638 -0.00533,-0.012739 -0.00799,-0.018969 -6.62e-5,-1.881e-4 -1.433e-4,-3.761e-4 -2.15e-4,-5.786e-4 -7.3e-6,-1.91e-5 -2.01e-5,-3.84e-5 -3.48e-5,-7.69e-5 -0.014488,-0.04054 -0.035121,-0.082865 -0.032148,-0.1224052 0.00462,-0.034717 0.064676,-0.032668 0.105664,-0.034687 0.1032203,-1.607e-4 0.2061102,-0.0014 0.3103518,0.00186 0.037469,0.0019 0.086585,0.00312 0.1147594,0.0311 0.018903,0.035027 0.031035,0.070251 0.042309,0.1053476 0.00349,0.010893 0.00692,0.021764 0.010324,0.032627 1.534e-4,4.766e-4 3.229e-4,9.528e-4 4.713e-4,0.00143 0.00457,0.014663 0.00928,0.029296 0.014498,0.043865 0.00485,0.018587 0.018167,0.048639 -0.014685,0.052155 -0.1146397,0.014112 -0.2390346,0.00583 -0.3594831,0.00609 z m 0.1861324,0.7043187 c -0.044215,0.00353 -0.074904,-0.033164 -0.085081,-0.058061 -0.011085,-0.026116 -0.022446,-0.052504 -0.032235,-0.078924 -0.0099,-0.026625 -0.018285,-0.053303 -0.023114,-0.079785 -0.00868,-0.03034 0.041435,-0.034485 0.075292,-0.034585 0.1350316,0.00758 0.2657917,0.0026 0.3991761,0.00542 0.012544,0.00685 0.025356,0.013755 0.038076,0.020645 l 5.98e-5,1.735e-4 c 0.018176,0.049464 0.037944,0.098825 0.052935,0.1475213 0.00398,0.01288 0.00779,0.025699 0.010959,0.038508 0.011354,0.029975 -0.034221,0.041415 -0.071184,0.039439 -0.1216164,-2.785e-4 -0.2430544,3.601e-4 -0.3647773,-3.449e-4 z m 0.199419,0.6274111 c -0.04531,-0.032829 -0.05118,-0.074551 -0.067898,-0.1120252 -7.2e-6,-3.18e-5 -3.14e-5,-9.54e-5 -5.04e-5,-1.584e-4 l -1.187e-4,-2.856e-4 c -0.00964,-0.03311 -0.030512,-0.070952 -0.00858,-0.099057 0.091679,-0.015979 0.1966115,-0.00785 0.2965704,-0.0064 0.047542,0.00117 0.094165,-0.00125 0.1426292,0.00317 l -9.96e-5,-2.871e-4 c 0.031611,0.013785 0.043555,0.034663 0.051414,0.055961 0.00317,0.00852 0.00566,0.017113 0.00849,0.025338 0.00135,0.00393 0.00278,0.0078 0.00441,0.011525 1.7e-5,6.37e-5 3.89e-5,1.274e-4 4.48e-5,1.588e-4 3.77e-5,9.52e-5 6.58e-5,1.91e-4 9.76e-5,2.546e-4 0.00122,0.00545 0.00289,0.010983 0.0048,0.016564 0.00577,0.016786 0.013759,0.033989 0.019129,0.050793 0.00726,0.02254 0.00989,0.044371 -0.00395,0.063516 -0.1067286,6.64e-5 -0.2150105,-0.00382 -0.3204741,-2.685e-4 -0.040906,5.483e-4 -0.083614,0.00229 -0.1263869,-0.00883 z M 7.816365,7.7322137 C 7.76645,7.7283437 7.757329,7.6901997 7.743474,7.6674657 c -3.93e-5,-1.156e-4 -8.16e-5,-2.019e-4 -1.176e-4,-3.086e-4 -5.42e-5,-8.66e-5 -1.187e-4,-2.313e-4 -1.623e-4,-3.087e-4 -0.00355,-0.010683 -0.00851,-0.021747 -0.013626,-0.032947 -0.0025,-0.00547 -0.00502,-0.010947 -0.00741,-0.016434 -0.012479,-0.028499 -0.021779,-0.057035 -0.00683,-0.081364 0.068711,-0.014761 0.1547884,-0.00328 0.2308093,-0.00659 0.072666,0.00327 0.1457028,-0.00874 0.2193709,0.00928 l 0.00457,0.00716 -2.03e-5,-5.88e-5 c 0.01323,0.027356 0.024617,0.054906 0.034081,0.082384 0.0094,0.027162 0.017059,0.054233 0.023203,0.080997 0.0025,0.029661 -0.060695,0.02398 -0.095392,0.025262 -0.1062131,-0.00381 -0.2088483,0.00406 -0.315547,-0.00233 z m 0.189148,0.5336646 c -0.044111,-0.00808 -0.047374,-0.039445 -0.05826,-0.059736 -4.72e-5,-1.595e-4 -1.234e-4,-3.238e-4 -1.694e-4,-4.8e-4 -2.92e-5,-5.3e-5 -4.5e-5,-1.063e-4 -7.42e-5,-1.593e-4 -0.00152,-0.00518 -0.00344,-0.010458 -0.00554,-0.015775 -0.00437,-0.01099 -0.00956,-0.02221 -0.014089,-0.033393 -0.011388,-0.027911 -0.018914,-0.055607 0.00109,-0.078842 0.1216616,0.00134 0.2423629,-5.195e-4 0.3640602,6.632e-4 l -8.51e-5,-2.434e-4 c 0.028708,-0.00147 0.070392,0.00849 0.073891,0.030083 0.00942,0.023981 0.019265,0.048 0.02749,0.071878 0.00829,0.023815 0.015135,0.047497 0.018796,0.070894 -0.015204,0.023037 -0.069707,0.014445 -0.1061463,0.016304 -0.1021061,-0.0052 -0.195789,0.017249 -0.3008805,-0.0012 z m 0.6983775,0.066253 C 8.4304243,7.4826967 8.1150383,6.5077284 7.7477122,5.3772215 8.9796771,5.3740547 10.213235,5.375482 11.446093,5.376741 l -1.3e-5,-1.661e-4 c 0.01821,0.242266 0.04628,0.4771159 0.05687,0.7050297 0.05747,0.6309239 0.10078,1.2096157 0.145428,1.7422792 0.01409,0.1741751 0.02887,0.3437694 0.03909,0.5088092 -0.191984,0.00649 -0.384654,0.00708 -0.577539,0.00634 -0.343553,0.00221 -0.689648,-0.01057 -1.031518,-2.741e-4 -0.3533589,-0.00136 -0.7053727,0.00349 -1.0602571,-0.00403 -0.1047874,-7.185e-4 -0.2084705,0.00204 -0.3142765,-0.00259 z M 8.1651642,8.7490775 c -0.032727,-0.034256 -0.035895,-0.07158 -0.051708,-0.1073831 -4.39e-5,-1.726e-4 -1.067e-4,-3.602e-4 -1.605e-4,-5.357e-4 -4.2e-5,-9.88e-5 -7.54e-5,-1.979e-4 -1.171e-4,-2.959e-4 -0.00482,-0.018962 -0.020019,-0.047011 0.016277,-0.054253 0.040827,-0.00729 0.088158,-0.0038 0.1326275,-0.00439 0.077545,0.00131 0.1543592,-0.00385 0.2339061,0.00654 0.016263,0.00146 0.034391,0.00809 0.03961,0.017958 l 1.046e-4,3.032e-4 c 0.011455,0.02183 0.020543,0.043781 0.028064,0.065616 0.0075,0.021771 0.013387,0.04348 0.018263,0.064945 0.00341,0.01928 -0.036089,0.022226 -0.062114,0.023745 -0.080238,0.0025 -0.1624403,-8.12e-5 -0.2432588,0.00115 C 8.240636,8.761437 8.199199,8.764807 8.1652683,8.74907 Z M 8.3619145,9.211137 C 8.3307375,9.207597 8.3250035,9.186802 8.3169525,9.173695 8.3099625,9.156664 8.3020945,9.139471 8.2956495,9.122272 c -0.00651,-0.0173 -0.011589,-0.03462 -0.012996,-0.05175 -0.00257,-0.024466 0.058339,-0.016561 0.08889,-0.018938 0.1076925,0.00371 0.2139238,-0.00912 0.3235053,0.011119 l -2.39e-5,-6.91e-5 c 0.011664,0.031331 0.024465,0.062478 0.034473,0.093351 0.00336,0.010326 0.00639,0.020635 0.00896,0.030913 0.00369,0.00985 8.949e-4,0.021271 -0.017375,0.024147 -0.048884,0.00555 -0.1027202,0.00165 -0.1539075,0.00255 -0.068385,-9.789e-4 -0.1351509,0.00488 -0.205295,-0.00244 z m 0.1695952,0.4224846 c -0.027902,-0.00209 -0.041399,-0.018643 -0.04922,-0.030768 -0.014739,-0.025517 -0.023365,-0.051316 -0.031288,-0.077065 -1.62e-5,-6.36e-5 -2.86e-5,-1.282e-4 -3.18e-5,-1.681e-4 -4.08e-5,-1.283e-4 -8.75e-5,-2.404e-4 -1.181e-4,-3.526e-4 -0.00235,-0.012015 -0.00682,-0.025875 0.00774,-0.0345 0.084527,-0.010745 0.1801399,0.00198 0.2672422,-0.0045 0.038176,-0.00332 0.079027,-0.00158 0.1186109,0.0074 l 7.3e-6,2.13e-5 c 0.01347,0.038395 0.029995,0.076531 0.038507,0.1141681 2.16e-5,6.27e-5 -3.46e-5,1.263e-4 -2.1e-5,1.658e-4 1.94e-5,1.027e-4 6.42e-5,2.21e-4 8.89e-5,3.394e-4 0.00454,0.013287 -0.00967,0.025294 -0.033963,0.027072 -0.049372,0.00402 -0.1024275,-1.79e-5 -0.153021,0.00124 -0.054448,-3.394e-4 -0.1085292,0.00391 -0.1645678,-0.00307 z m 0.1366655,0.3902814 c -0.016003,-0.001 -0.025669,-0.0104 -0.03099,-0.01717 -0.00735,-0.010679 -0.012429,-0.021466 -0.016752,-0.032304 -0.00438,-0.010905 -0.00795,-0.021852 -0.012216,-0.032772 -0.00487,-0.016947 -0.014086,-0.035954 0.00182,-0.050105 0.063274,-0.0075 0.1343267,-2.25e-4 0.1999493,-0.0037 0.054191,4.139e-4 0.1136283,-0.0056 0.1670625,0.010325 l -1.36e-5,-3.95e-5 c 0.011766,0.01489 0.019153,0.030114 0.024625,0.045433 0.00731,0.020156 0.011429,0.040489 0.017938,0.060493 0.00162,0.0049 0.0034,0.0098 0.00542,0.01464 h -1.16e-5 c 6.46e-5,1.54e-4 1.06e-4,3.09e-4 1.705e-4,4.61e-4 -0.065224,0.01129 -0.1401197,0.0062 -0.2109184,0.0071 -0.048457,-5.34e-4 -0.096574,0.0023 -0.1461742,-0.0024 z m 0.235373,0.367883 c -0.03435,-7.44e-4 -0.070642,0.0025 -0.1049045,-0.0064 -0.018936,-0.0086 -0.026586,-0.01996 -0.031987,-0.03145 -0.00215,-0.0045 -0.00395,-0.0091 -0.00593,-0.01357 -9.432e-4,-0.0021 -0.00192,-0.0042 -0.00298,-0.0062 -1.2e-6,-1.2e-5 -1.39e-5,-3.6e-5 -1.7e-5,-5.4e-5 -7.41e-5,-1.45e-4 -1.355e-4,-2.97e-4 -2.083e-4,-4.48e-4 -0.00635,-0.02258 -0.025299,-0.04862 -0.00384,-0.06806 0.053059,-0.0071 0.1115037,-0.0059 0.1690222,-0.0034 0.052078,0.0022 0.1021291,-0.002 0.1543059,10e-4 0.017572,1.14e-4 0.030567,0.009 0.035811,0.01676 l -7.21e-5,-2.09e-4 c 0.00809,0.01364 0.013765,0.02739 0.018516,0.04119 0.00469,0.01359 0.0083,0.02717 0.011944,0.04064 0.00419,0.01246 -0.00238,0.02822 -0.030959,0.02919 -0.068598,0.0025 -0.139387,-1.3e-4 -0.2086617,0.001 z m 0.5444303,0.04819 c -0.02624,-2.88e-4 -0.066405,7.21e-4 -0.065909,-0.01809 C 9.2977095,10.164625 9.2112565,9.8940658 9.1187586,9.6092033 9.0061928,9.2570636 8.880893,8.8817085 8.7559445,8.4808983 9.0527884,8.4769864 9.3519902,8.4803121 9.6498602,8.479341 l 1.3342408,2.815e-4 c 0.238572,0.0012 0.476761,-0.00231 0.715482,0.00197 l 1.8e-5,2.273e-4 c 0.01641,0.222464 0.04024,0.4369589 0.05499,0.6436637 0.02369,0.344737 0.0527,0.669557 0.0797,0.9760385 0.01141,0.114249 0.01452,0.226058 0.02564,0.335544 -0.108046,0.0052 -0.217303,0.0013 -0.325787,0.0029 -0.695213,10e-4 -1.39107,-9.93e-4 -2.086127,1.3e-5 z m -0.4624451,0.291012 c -0.024712,-6.94e-4 -0.062146,4.44e-4 -0.07527,-0.01413 -0.016777,-0.02225 -0.026089,-0.04526 -0.031334,-0.06806 -0.00181,-0.0078 -0.00318,-0.01551 -0.00411,-0.0232 -0.00502,-0.01774 0.040071,-0.01553 0.065131,-0.01699 0.068976,6.16e-4 0.1380692,0.0018 0.206063,-9.5e-5 0.026634,0.0013 0.067067,-5.97e-4 0.084075,0.01315 l -6.08e-5,-1.76e-4 c 0.00883,0.01454 0.014767,0.02913 0.019795,0.04373 0.00431,0.01246 0.00783,0.0249 0.011477,0.03726 5.288e-4,0.0017 0.00103,0.0035 0.00153,0.0052 2.48e-5,5.1e-5 1.37e-5,1.03e-4 3.86e-5,1.54e-4 l 1.424e-4,4.87e-4 c 0.00666,0.01304 -0.015768,0.02336 -0.041784,0.02284 -0.078394,1.93e-4 -0.1572771,-5.15e-4 -0.2357197,-1.54e-4 z m 0.150936,0.320327 c -0.032071,-6.78e-4 -0.067638,0.0024 -0.098339,-0.0075 -0.01521,-0.01612 -0.02347,-0.03275 -0.029333,-0.04952 -0.00575,-0.01669 -0.00872,-0.03349 -0.013085,-0.05006 0.026331,-0.0059 0.055518,-0.0095 0.087059,-0.0088 0.072888,8.39e-4 0.1449522,-0.0013 0.2184557,0.0016 l 8.3e-5,2.38e-4 c 0.020572,-1.62e-4 0.041813,0.0081 0.045582,0.01766 0.00942,0.01815 0.015681,0.03633 0.020854,0.0544 0.00175,0.0061 0.00336,0.01218 0.00492,0.01826 0.00472,0.01065 -0.00734,0.0222 -0.031957,0.02236 -0.06703,0.0028 -0.1364599,2.69e-4 -0.2042886,0.0013 z m 0.020996,0.297027 c -0.024307,-0.02301 -0.032394,-0.04733 -0.040009,-0.07133 -1.9e-5,-6.3e-5 -2.61e-5,-1.09e-4 -4.09e-5,-1.66e-4 -3.43e-5,-1.08e-4 -7.8e-5,-2.22e-4 -1.123e-4,-3.3e-4 -0.00312,-0.01142 -0.00617,-0.0238 0.00673,-0.03309 0.098623,-0.0044 0.201173,-0.0014 0.3018895,-0.0016 0.00784,0.0029 0.015506,0.0058 0.023467,0.0088 l 3.68e-5,1.06e-4 c 0.00621,0.01488 0.011893,0.0297 0.016904,0.04449 0.00289,0.0085 0.00504,0.01698 0.00746,0.02544 0.00174,0.0061 0.00386,0.01215 0.00535,0.01822 -2.2e-6,3e-6 -5.6e-6,3e-6 -1.08e-5,7e-6 3.73e-5,1.58e-4 9.95e-5,3.09e-4 1.41e-4,4.78e-4 -0.00544,0.0029 -0.011019,0.0058 -0.016409,0.0087 -0.1012224,0.0019 -0.202624,0.0025 -0.3054009,2.32e-4 z m 0.1060749,0.280194 c -0.024531,-0.02309 -0.031351,-0.04745 -0.038979,-0.07136 -1.23e-5,-5.8e-5 -2.79e-5,-1.12e-4 -3.71e-5,-1.71e-4 l -5.75e-5,-1.77e-4 c -0.00196,-0.0087 -0.00504,-0.018 0.00414,-0.02522 0.053146,-0.0034 0.1091621,-0.0011 0.1635732,-0.0016 0.051426,7.37e-4 0.1034569,-0.0034 0.155326,0.0054 l -9.9e-6,-2.8e-5 c 0.00551,0.01825 0.017961,0.03681 0.023923,0.05509 0.00369,0.0109 0.00517,0.0217 0.0016,0.03228 -0.00795,0.0073 -0.030507,0.006 -0.047349,0.0066 -0.087658,-8.7e-4 -0.1737184,0.0026 -0.2621983,-8.18e-4 z m 0.1124478,0.263521 c -0.019351,-0.0016 -0.025549,-0.01147 -0.029845,-0.01807 -0.00314,-0.0057 -0.00589,-0.01148 -0.00832,-0.01724 -0.00727,-0.01728 -0.011597,-0.03464 -0.014838,-0.052 0.060426,-0.01251 0.1343219,-0.0082 0.2030238,-0.0091 0.036403,9.71e-4 0.082625,-0.0023 0.1129973,0.01061 l -9.2e-6,-2.7e-5 c 0.00812,0.01331 0.013032,0.02664 0.017139,0.03996 0.00417,0.01331 0.00741,0.0266 0.011965,0.03981 -0.03078,0.01099 -0.07646,0.0072 -0.1165448,0.0076 -0.058577,-7.49e-4 -0.1161717,0.0031 -0.1757476,-0.0015 z m 0.4903433,0.03341 c -0.016215,-0.05325 -0.042492,-0.107021 -0.057453,-0.161577 -0.021775,-0.09432 -0.058895,-0.190808 -0.08914,-0.289334 -0.025888,-0.07977 -0.051854,-0.160924 -0.078829,-0.243525 -0.031396,-0.06985 -0.04874,-0.140922 -0.073835,-0.212973 -0.021524,-0.07154 -0.050827,-0.144184 -0.065776,-0.217772 -0.027608,-0.0855 -0.055532,-0.172541 -0.084688,-0.261073 0.502482,-0.0018 1.0053636,-0.002 1.5085256,-0.0018 0.314596,0.0029 0.628579,-6.26e-4 0.943001,0.0022 l -1.6e-5,-1.99e-4 1.6e-5,1.99e-4 c 0.01327,0.197325 0.03486,0.387102 0.04819,0.569776 0.02494,0.288575 0.04397,0.560248 0.06495,0.81644 -0.61458,0.0032 -1.230311,7.46e-4 -1.845256,0.0014 -0.08999,-8.14e-4 -0.1792376,0.0019 -0.2699099,-0.0018 z"
         id="path636"
         style="fill:#ffffff;stroke-width:0.0194633" />
      <path
         d="m 12.697302,15.15126 -1.7e-4,-3.201069 -3.5464647,-3.59e-4 1.3015817,3.201428 z m -0.179857,-0.06592 c 0.01071,2.73e-4 0.01936,0.0029 0.02028,0.0057 l 10e-7,1.1e-5 c 0.0025,0.0083 0.003,0.01658 0.0011,0.0248 5.3e-5,4.61e-4 -1.09e-4,9.48e-4 -4.48e-4,0.0014 -0.0023,0.0031 -0.01404,0.0053 -0.02576,0.0054 -0.02373,5.13e-4 -0.04757,-4.05e-4 -0.07139,-2.47e-4 -0.03247,-1.25e-4 -0.06556,0.0014 -0.09758,-8.1e-4 -0.009,-0.0064 -0.0058,-0.01322 -0.0071,-0.01982 2.88e-4,-0.0038 -0.0015,-0.0077 8.77e-4,-0.01144 8.01e-4,-0.0013 0.0021,-0.0025 0.004,-0.0037 0.02753,-0.0025 0.05725,-0.0016 0.08592,-0.0017 0.02998,2.28e-4 0.06003,-6.56e-4 0.08994,3.29e-4 z m -0.0035,-0.105581 c 0.0088,1.94e-4 0.01912,0.0017 0.02035,0.0043 v -1.1e-5 c 0.0037,0.0086 0.0028,0.01724 0.0019,0.02582 -4.6e-5,4.78e-4 -9.2e-5,9.84e-4 -1.39e-4,0.0014 7.85e-4,0.004 -0.01301,0.0069 -0.02698,0.0066 -0.05213,2.07e-4 -0.104317,3.92e-4 -0.156461,-1.61e-4 -0.01433,1.03e-4 -0.0214,-0.0043 -0.02132,-0.0076 -0.0012,-0.0077 -0.0021,-0.01551 -0.0012,-0.02327 8.1e-5,-6.24e-4 -4.2e-5,-0.0013 7.9e-5,-0.0019 1.42e-4,-0.0038 0.01336,-0.0061 0.02568,-0.0064 0.02817,-7.96e-4 0.05636,6.82e-4 0.0846,8.25e-4 0.02452,2.36e-4 0.04908,-3.98e-4 0.07348,3.69e-4 z m 0.01743,-0.104779 c -4e-6,1.35e-4 1.7e-4,2.18e-4 1.34e-4,3.83e-4 5.42e-4,0.0049 0.0013,0.0098 0.0015,0.01473 1.8e-4,0.0049 -2.14e-4,0.0098 -0.002,0.01463 -0.0029,0.0049 -0.02347,0.0049 -0.03739,0.005 -0.05465,-1.83e-4 -0.109292,3.48e-4 -0.163938,-4.67e-4 -0.0014,-0.0019 -0.0021,-0.0038 -0.003,-0.0057 -0.0054,-0.01095 -0.005,-0.02212 -0.0015,-0.03313 0.0058,-2.02e-4 0.01161,-2.46e-4 0.01741,-3.84e-4 0.04744,-0.0011 0.09541,-2.93e-4 0.143032,-8.84e-4 l -1e-6,-1.8e-5 -3e-6,-7.1e-5 c 0.01622,6.3e-5 0.04592,-5.02e-4 0.04572,0.006 z m -0.0044,-0.115242 c 0.0023,0.0066 0.0032,0.01326 0.0027,0.01989 -3.18e-4,0.0053 -0.0014,0.01057 -0.0035,0.0158 -0.06792,0.0028 -0.137864,0.0028 -0.20601,-2.09e-4 -0.005,-0.01057 -0.0059,-0.0213 -0.0043,-0.03198 6e-6,-1.2e-5 9e-6,-1.8e-5 1.7e-5,-2.9e-5 l 4e-6,-4.7e-5 c 0.0019,-0.0028 0.0016,-0.0071 0.01446,-0.0073 0.04995,-0.0022 0.100977,-8.27e-4 0.151449,-0.0013 l -10e-7,-2.5e-5 -1e-6,-1.2e-5 c 0.01564,2.1e-4 0.04104,-6.75e-4 0.04516,0.0052 z m -0.04959,-0.12446 c 0.01794,3.1e-5 0.04942,1.49e-4 0.04765,0.0076 6.83e-4,0.0059 0.0014,0.01185 0.0014,0.01777 -2.2e-5,0.0059 -7.51e-4,0.0118 -0.0032,0.01764 -0.05539,0.002 -0.111434,5.97e-4 -0.167097,10e-4 -0.01632,-1.16e-4 -0.04249,-1.03e-4 -0.04482,-0.0064 -0.0048,-0.0091 -0.0038,-0.01838 -0.0035,-0.02757 5e-6,-2.17e-4 1.4e-5,-4.46e-4 2.2e-5,-6.37e-4 -0.0011,-0.0046 0.01081,-0.0089 0.02694,-0.0089 0.04734,-0.0012 0.09514,4.81e-4 0.142647,-6.05e-4 l 2e-6,4.5e-5 z m 0.03467,-0.122758 2e-6,4.7e-5 c 0.02192,0.01245 0.0064,0.02696 0.01196,0.04025 -9e-6,1e-6 -1.9e-5,3e-6 -2.1e-5,7e-6 2e-6,4e-6 3e-6,1.2e-5 5e-6,1.2e-5 -0.02282,0.0058 -0.0545,0.0047 -0.08256,0.0048 -0.04516,-2.62e-4 -0.09042,7.2e-4 -0.135371,-0.0014 -0.0058,-0.01409 -0.01299,-0.0291 -1.87e-4,-0.04302 h 9e-6 l 1.7e-5,-2e-5 c 0.02872,-0.0016 0.05831,-3.98e-4 0.08734,-0.0014 0.0395,-0.0015 0.0791,7.01e-4 0.118781,6.35e-4 z m -0.158966,-0.129748 c 0.03835,5.55e-4 0.07672,3.27e-4 0.11504,3.13e-4 0.0035,4.1e-5 0.0071,6.2e-5 0.0106,9e-5 0.01229,7.4e-5 0.02474,3.29e-4 0.0353,0.0024 v 1.4e-5 l 10e-7,2.8e-5 c 7.69e-4,10e-4 9.55e-4,0.0021 0.0016,0.0032 0.0055,0.01018 0.0024,0.02061 0.0035,0.03084 7e-6,7.3e-5 -5e-6,1.46e-4 4e-6,2.19e-4 1.7e-4,5.48e-4 2.09e-4,0.0011 1.38e-4,0.0017 -5.45e-4,0.0042 -0.0074,0.0088 -0.023,0.0089 -0.04899,6.14e-4 -0.0981,-1.15e-4 -0.147186,2.66e-4 -0.01621,-2.69e-4 -0.03439,6.82e-4 -0.04876,-0.0022 -0.0072,-0.0054 -0.0083,-0.01106 -0.0086,-0.01678 -8.3e-5,-0.0023 -2.6e-5,-0.0046 -1.77e-4,-0.0069 -7.6e-5,-0.0011 -1.92e-4,-0.0023 -4.18e-4,-0.0034 2e-6,-3e-6 0,-7e-6 2e-6,-7e-6 -3e-6,-6e-6 -1e-6,-1.3e-5 -4e-6,-2e-5 8.82e-4,-0.0057 -0.0042,-0.01323 0.01367,-0.01694 0.01457,-0.0024 0.03224,-0.0016 0.04828,-0.0017 z m 0.157301,-0.133603 v -7e-6 c 0.0055,0.0131 0.0059,0.02619 0.0041,0.03919 -1.3e-4,9.64e-4 -1.7e-4,0.0019 -3.12e-4,0.0029 6.48e-4,0.004 -0.01291,0.0056 -0.02319,0.0065 -0.04266,0.0027 -0.08613,-0.002 -0.128938,1.62e-4 -0.02481,0.0012 -0.05005,8.5e-5 -0.07342,-0.0028 -4.17e-4,-0.0011 -8.21e-4,-0.0021 -0.0012,-0.0032 -0.005,-0.01324 -0.009,-0.02694 -1.3e-4,-0.04002 0.01504,-0.0045 0.03909,-0.003 0.05838,-0.0033 0.05493,0.0014 0.109823,-6.12e-4 0.164727,5.83e-4 z m -0.03298,-0.141477 10e-7,2.2e-5 c 0.0021,-4e-6 0.0043,7.2e-5 0.0063,2.14e-4 0.01434,9.83e-4 0.02631,0.0053 0.02656,0.01006 0.0041,0.01245 0.0012,0.0249 0.0022,0.0373 -8e-6,10e-7 -1.8e-5,3e-6 -2.2e-5,5e-6 v 1.4e-5 c -0.02218,0.0063 -0.05349,0.0038 -0.08074,0.0041 -0.04964,-5.22e-4 -0.100057,0.0023 -0.149119,-0.0014 -0.01212,-0.0085 -0.0067,-0.01811 -0.0088,-0.02713 1.6e-5,-1.22e-4 10e-7,-2.48e-4 2.2e-5,-3.74e-4 1.42e-4,-0.0014 5.2e-5,-0.0028 -1.3e-4,-0.0042 -6.14e-4,-0.0049 -0.0018,-0.01 0.005,-0.01436 1.2e-5,-7e-6 1.4e-5,-1.4e-5 2.3e-5,-2.1e-5 0.01106,-0.0055 0.03407,-0.0046 0.05201,-0.0048 0.04889,3.79e-4 0.09787,-3.71e-4 0.146801,4.58e-4 z m 0.0051,-0.14582 -10e-7,-3e-5 c 0.0043,2.76e-4 0.0084,9.47e-4 0.01209,0.0018 0.0065,0.0014 0.01128,0.0035 0.01111,0.0061 0.0019,0.006 0.0028,0.01206 0.0029,0.0181 1.62e-4,0.006 -4.03e-4,0.01205 -0.0014,0.01803 4.22e-4,0.0046 -0.01204,0.0082 -0.02552,0.0088 -0.02308,0.0013 -0.04668,3.73e-4 -0.07004,5.03e-4 -0.04001,-7.7e-5 -0.08031,0.0022 -0.120069,-1.81e-4 -0.01561,-8.56e-4 -0.02515,-0.006 -0.0252,-0.01081 -6.99e-4,-0.0033 -0.0012,-0.0066 -0.0016,-0.0099 -10e-4,-0.0099 -3e-4,-0.01975 0.0032,-0.02957 0.03425,-0.0063 0.07468,-0.0042 0.112546,-0.0044 0.03402,2.44e-4 0.06857,-9.06e-4 0.102074,0.0016 z m 0.01836,-0.1468 2e-6,6.4e-5 c 0.0046,0.0144 0.0047,0.02903 6.73e-4,0.04331 -1.2e-5,9e-6 -2.4e-5,1.6e-5 -4.7e-5,2.4e-5 l -7e-6,3.2e-5 c -0.0105,0.0076 -0.03943,0.0051 -0.05966,0.0056 -0.05896,-7.34e-4 -0.118252,0.0012 -0.177095,-0.001 -0.01245,-0.0093 -0.0087,-0.01964 -0.0103,-0.0295 1.48e-4,-0.0053 -0.0015,-0.01108 0.0014,-0.01639 0.0017,-0.0032 0.0051,-0.0063 0.01148,-0.0089 0.05965,-0.0017 0.120019,-7.5e-5 0.179953,-7.77e-4 0.01911,-2.63e-4 0.04893,-6.18e-4 0.0536,0.0076 z m -0.02606,-0.166746 c 0.0075,4.33e-4 0.01432,0.0015 0.01845,0.004 l -3e-6,-9.4e-5 v -1.7e-5 c 0.0019,0.0027 0.003,0.0055 0.0037,0.0082 0.0028,0.0097 2.74e-4,0.01965 0.0016,0.02936 6.4e-5,5.13e-4 7.8e-5,0.001 1.17e-4,0.0015 4.11e-4,0.0058 -0.0022,0.01308 -0.02165,0.01452 -0.04566,0.0025 -0.09225,1.2e-5 -0.138303,7.16e-4 -0.029,-1.69e-4 -0.06012,0.0019 -0.08754,-0.0026 -0.0099,-0.01369 -0.0057,-0.02793 -0.0076,-0.04196 -1.9e-5,-1.39e-4 -5e-6,-2.77e-4 -2.4e-5,-4.12e-4 -1.7e-4,-7.32e-4 -2.43e-4,-0.0015 -2.44e-4,-0.0022 7.7e-5,-0.0054 0.0053,-0.01175 0.0246,-0.0113 0.06019,-9.49e-4 0.120583,-1.1e-5 0.180843,-4.24e-4 0.0079,3.43e-4 0.01747,1.43e-4 0.02601,6.5e-4 z m 0.01254,-0.166308 c 0.0041,0.0063 0.0058,0.01269 0.0064,0.01913 9.45e-4,0.01023 -9.7e-4,0.02053 -8.1e-4,0.03064 5.48e-4,0.0083 -0.02569,0.01026 -0.04469,0.0095 -0.0599,-0.0012 -0.119835,-2.91e-4 -0.179664,-4.32e-4 -0.01751,9.35e-4 -0.02812,-0.0044 -0.03141,-0.0096 -4.81e-4,-7.6e-4 -8.12e-4,-0.0015 -9.86e-4,-0.0023 -0.0043,-0.0158 -0.0037,-0.03181 9.6e-4,-0.04764 0.0543,-0.0054 0.111314,-0.0018 0.166956,-0.0033 0.02777,1.01e-4 0.05851,-0.0012 0.08335,0.004 l -10e-7,-4.3e-5 z m -0.05064,-0.180327 c 0.01623,0.0011 0.03787,-1.7e-5 0.04878,0.0054 v 1.9e-5 c 0.0011,0.0019 0.0018,0.0038 0.0023,0.0058 0.0015,0.0058 7.71e-4,0.0116 0.0012,0.01737 v 9e-6 10e-6 c -5.97e-4,0.01278 0.007,0.02645 -0.01219,0.03794 -0.07787,3.3e-5 -0.155713,-2.89e-4 -0.233594,1.82e-4 -0.01211,-0.0053 -0.02182,-0.01144 -0.01991,-0.01842 l -10e-7,-1.8e-5 c 2e-6,-5e-6 -3e-6,-9e-6 -1e-6,-9e-6 1.08e-4,-0.0019 3.4e-5,-0.0039 -1.19e-4,-0.0058 -4.84e-4,-0.0059 -0.0018,-0.01185 -0.002,-0.01777 -2.8e-4,-0.0079 0.0014,-0.01577 0.0097,-0.02325 0.06827,-0.0025 0.137271,-0.0017 0.205831,-0.0014 z m -0.01506,-0.185669 c 0.0044,-9.9e-5 0.0086,0 0.013,1.18e-4 0.01764,4.67e-4 0.03447,0.0027 0.04851,0.0068 v -2e-5 2e-5 c -1.86e-4,0.0047 5.6e-5,0.0095 3.96e-4,0.0142 3.47e-4,0.0047 8.2e-4,0.0095 0.0011,0.01423 5.71e-4,0.0094 4.01e-4,0.01886 -0.0029,0.02818 -0.01384,0.0078 -0.04285,0.0069 -0.06525,0.0071 -0.05359,-4.01e-4 -0.107138,2.5e-4 -0.160621,-2.27e-4 -0.01809,-4.8e-5 -0.0424,-0.0025 -0.04255,-0.01059 -9.35e-4,-0.0096 -0.0037,-0.01951 -0.0041,-0.02934 -4.79e-4,-0.0098 0.0013,-0.01965 0.0093,-0.02912 0.06736,-0.0024 0.135364,-0.001 0.203057,-0.0014 z m 0.0015,-0.194036 c 0.01504,7.49e-4 0.03532,-3.84e-4 0.04698,0.0038 0.0017,5.95e-4 0.0031,0.0013 0.0044,0.0021 0.0088,0.01952 0.0019,0.03923 0.0045,0.05862 v 10e-6 c -0.0077,0.0028 -0.0155,0.0057 -0.02324,0.0085 -0.07268,4.01e-4 -0.14543,1.49e-4 -0.218185,-2.85e-4 -0.02338,3.72e-4 -0.03947,-0.0083 -0.03785,-0.01641 4.6e-5,-0.01829 -0.01055,-0.03757 0.0071,-0.05521 0.07189,-0.0019 0.1442,-9.79e-4 0.21635,-0.0012 z M 12.279061,12.71628 c 0.06267,8.38e-4 0.12574,-0.0016 0.188086,0.0023 0.0056,0.02042 0.0055,0.04086 0.0048,0.0611 1.5e-4,0.0013 -6.1e-5,0.0027 -7.11e-4,0.0041 -0.0019,0.0042 -0.0078,0.0081 -0.02065,0.0079 -0.06424,0.0012 -0.128928,-5.35e-4 -0.193247,0.0013 -0.02353,-1.93e-4 -0.06182,0.0013 -0.0684,-0.01043 -0.0057,-0.015 -0.004,-0.03022 -0.0052,-0.0454 -8.7e-5,-0.0017 -4e-5,-0.0036 3.75e-4,-0.0055 0.0012,-0.0057 0.0059,-0.01144 0.0207,-0.01353 0.02382,-0.0028 0.04957,-0.0015 0.07431,-0.0017 z m 0.186651,-0.210965 c -0.0022,0.0219 0.006,0.04387 -6.37e-4,0.06542 -3.81e-4,0.0013 -6.19e-4,0.0025 -0.0011,0.0037 -0.01685,0.0077 -0.04721,0.0061 -0.07069,0.0072 -0.06914,-3.09e-4 -0.138609,0.0016 -0.207606,-0.0021 -0.02116,-0.01809 -0.01302,-0.03826 -0.01589,-0.05754 l -10e-7,-1.3e-5 c 0.0017,-0.0063 -0.0037,-0.01593 0.01554,-0.01855 0.03143,-0.005 0.06655,-0.0023 0.09976,-0.0025 0.06023,10e-4 0.122485,-0.0045 0.180636,0.0043 z m -0.03942,-0.232911 c 0.02414,5.16e-4 0.03345,0.01079 0.03199,0.01921 -4.3e-4,0.01579 0.0048,0.03205 2.61e-4,0.04768 -0.0015,0.0052 -0.0041,0.01032 -0.0081,0.01534 -0.04522,0.0025 -0.09126,9.98e-4 -0.136819,0.0012 -0.0497,-6.17e-4 -0.100067,0.0018 -0.149417,-0.0026 -0.0076,-0.01789 -0.0082,-0.03613 -0.0089,-0.05436 -5e-6,-0.0028 1.55e-4,-0.0057 6.1e-4,-0.0086 8.87e-4,-0.0058 0.0035,-0.01154 0.01295,-0.01607 0.02754,-0.004 0.05808,-0.0023 0.08689,-0.0028 0.05692,7.42e-4 0.113965,-0.0012 0.170719,8.76e-4 z m 0.02574,-0.235779 c 0.0018,0.02549 5.23e-4,0.0508 0.0024,0.07597 -0.02436,0.0071 -0.05292,0.008 -0.08183,0.0078 -0.01162,-6.2e-5 -0.02318,-2.9e-4 -0.03461,-3.43e-4 -0.0057,-2.8e-5 -0.01131,-1.6e-5 -0.01696,8.4e-5 -0.05005,-0.001 -0.100996,0.0025 -0.15041,-0.0022 -0.02878,-0.0035 -0.02768,-0.01789 -0.02896,-0.02779 6.83e-4,-0.01832 -0.009,-0.03772 0.0066,-0.05535 0.03879,-0.0098 0.08792,-0.0062 0.131706,-0.0071 0.05735,0.0014 0.120326,-0.0045 0.172185,0.0089 z m -2.9816689,0.08181 c -0.035186,-0.0036 -0.040589,-0.02077 -0.045438,-0.03236 -0.00226,-0.0086 -0.00714,-0.01769 -0.00947,-0.0266 -0.00237,-0.009 -0.00223,-0.01774 0.00575,-0.02557 0.026786,-0.0052 0.059616,-0.0039 0.089996,-0.0045 0.054634,3.52e-4 0.1094751,8.62e-4 0.164081,0.0013 0.016737,-3.9e-4 0.038623,0.0028 0.044357,0.01062 0.013172,0.02191 0.020213,0.04417 0.022783,0.06587 -4.2e-6,1.5e-5 -1.78e-5,2.5e-5 -1.7e-5,3.6e-5 5.7e-6,6.1e-5 2.38e-5,1.23e-4 3.43e-5,1.89e-4 -0.00374,0.0143 -0.045219,0.01269 -0.072853,0.01269 -0.066544,-0.001 -0.1322858,0.0017 -0.1993075,-0.0016 z m 0.095234,0.236893 c -0.031189,0.0012 -0.042275,-0.01421 -0.046439,-0.02376 -0.00322,-0.0095 -0.00892,-0.01943 -0.012055,-0.02921 -0.00315,-0.0098 -0.00363,-0.0195 0.00375,-0.02847 0.061966,-0.0053 0.1295491,-0.0016 0.1939555,-0.0028 0.031142,8.07e-4 0.069536,-0.003 0.095212,0.0084 0.00908,0.01135 0.013956,0.02286 0.017469,0.03438 0.00349,0.01152 0.00567,0.02303 0.00943,0.03439 -0.0051,0.0023 -0.010029,0.0046 -0.01512,0.0069 -0.081636,7.87e-4 -0.163823,8.1e-4 -0.2460399,2.42e-4 z m 0.1452203,0.225495 c -0.029932,-6.85e-4 -0.062639,7.7e-4 -0.091192,-0.0058 -0.0093,-0.01055 -0.01653,-0.02144 -0.021132,-0.03236 -0.00457,-0.01093 -0.00627,-0.02188 -0.00457,-0.03255 0.00189,-0.0102 0.031241,-0.01061 0.052226,-0.01102 0.058143,-4.55e-4 0.1166739,-9.3e-5 0.1749491,-1.92e-4 0.020899,-1.36e-4 0.049355,0.0015 0.059712,0.01067 0.00614,0.0084 0.00979,0.01684 0.012709,0.0253 0.00291,0.0084 0.0051,0.01682 0.00832,0.02518 8.059e-4,0.0064 0.00831,0.01688 -0.01316,0.01822 -0.057458,0.0042 -0.1185366,0.0019 -0.1778817,0.0025 z m 0.011581,0.211215 c -0.024569,-7.64e-4 -0.031289,-0.01178 -0.034873,-0.01904 -0.00317,-0.008 -0.00734,-0.01603 -0.01036,-0.02408 -0.00305,-0.008 -0.00499,-0.01606 -0.00366,-0.02396 0.00195,-0.0081 0.027201,-0.0081 0.044202,-0.0087 0.062737,-5.21e-4 0.1258382,-2.11e-4 0.1887793,-1.57e-4 0.019336,-5.87e-4 0.046486,0.0029 0.051297,0.01157 0.00279,0.0052 0.00515,0.01034 0.00707,0.01551 0.006,0.01534 0.0094,0.03064 0.014904,0.04585 -0.038204,0.0053 -0.080771,0.005 -0.1229631,0.0034 -0.045425,-0.0019 -0.088981,0.0017 -0.1343959,-3.69e-4 z m 0.058477,0.200024 c -0.010708,-0.01096 -0.019078,-0.02232 -0.024264,-0.03373 -0.00523,-0.01149 -0.00724,-0.02303 -0.00519,-0.03425 0.056141,-0.0051 0.1180017,-0.0013 0.1766019,-0.0025 0.031258,9.39e-4 0.06789,-0.0026 0.095841,0.0059 0.0042,0.005 0.0074,0.01001 0.0098,0.01505 0.0071,0.01493 0.0077,0.03006 0.01462,0.04487 -0.01689,0.0048 -0.03816,0.0071 -0.06095,0.0067 -0.068694,-3.31e-4 -0.1369843,0.0012 -0.2064903,-0.002 z m 0.4395806,0.02774 c -0.102306,-0.318185 -0.214089,-0.663985 -0.3369388,-1.041113 0.7003488,-0.0013 1.4014518,-2.63e-4 2.1021348,-3.1e-4 0.0047,0.06462 0.0088,0.128372 0.01707,0.191122 0.01197,0.147559 0.02391,0.290101 0.03487,0.427846 9.77e-4,0.0705 0.01253,0.13975 0.01682,0.20786 -5.05e-4,0.04581 0.0088,0.09106 0.01144,0.135827 0.0028,0.02648 0.0011,0.05277 0.0051,0.07892 -0.02381,4.5e-4 -0.04766,8.95e-4 -0.07154,9.39e-4 l -1.469331,-9.9e-5 c -0.103159,-4.67e-4 -0.205922,10e-4 -0.309588,-9.96e-4 z m -0.3028107,0.164985 c -0.019842,-2.95e-4 -0.040224,2.86e-4 -0.060117,-0.0022 -0.011522,-0.005 -0.016747,-0.01085 -0.020235,-0.01683 -2.235e-4,-3.8e-4 -3.986e-4,-7.61e-4 -5.938e-4,-0.0011 -4.3e-4,-7.85e-4 -8.581e-4,-0.0016 -0.00123,-0.0023 -3.61e-4,-7.37e-4 -6.903e-4,-0.0015 -0.00103,-0.0022 -7.434e-4,-0.0016 -0.00146,-0.0032 -0.0022,-0.0048 -1.53e-5,-4.7e-5 -3.61e-5,-9.5e-5 -5.28e-5,-1.46e-4 -1.8e-6,-4e-6 -6.4e-6,-9e-6 -1.01e-5,-1.9e-5 -0.00341,-0.0102 -0.00971,-0.02082 -0.00446,-0.03072 0.0056,-0.0087 0.035396,-0.0082 0.056051,-0.0087 0.051554,-4.4e-5 0.1030402,-3.58e-4 0.1548004,4.51e-4 0.01855,4.71e-4 0.04297,7.74e-4 0.05463,0.0078 0.0064,0.0088 0.0095,0.0176 0.01211,0.02642 8.14e-4,0.0027 0.0016,0.0055 0.0024,0.0082 3.6e-5,1.2e-4 8e-5,2.4e-4 1.13e-4,3.61e-4 0.001,0.0037 0.0021,0.0074 0.0035,0.01108 8.41e-4,0.0047 0.005,0.01232 -0.0119,0.01322 -0.05901,0.0036 -0.1209526,0.0015 -0.1816688,0.0016 z m 0.029143,0.183153 c -0.023155,9.34e-4 -0.035495,-0.0088 -0.03837,-0.01543 -0.00322,-0.0069 -0.00655,-0.0139 -0.00907,-0.02088 -0.00255,-0.007 -0.00431,-0.01404 -0.00427,-0.02099 -0.00156,-0.008 0.024474,-0.009 0.041805,-0.0091 0.068394,0.002 0.1357547,6.7e-4 0.2037597,0.0014 0.0058,0.0018 0.01179,0.0036 0.01771,0.0054 l 1.6e-5,4.5e-5 c 0.0051,0.01299 0.01096,0.026 0.01448,0.03888 9.48e-4,0.0034 0.0018,0.0068 0.0023,0.01021 0.0033,0.008 -0.02123,0.01101 -0.04013,0.01049 -0.06273,-6.9e-5 -0.125457,1.07e-4 -0.1882038,-7.6e-5 z m 0.044893,0.170741 c -0.020768,-0.0091 -0.019892,-0.02068 -0.025121,-0.03103 -6e-7,-9e-6 -7.3e-6,-2.7e-5 -1.14e-5,-4.4e-5 l -3.52e-5,-7.9e-5 c -0.00192,-0.0091 -0.00926,-0.01953 0.00489,-0.02724 0.049466,-0.0044 0.1036273,-0.0022 0.1558163,-0.0018 0.02478,3.19e-4 0.04939,-3.46e-4 0.07437,8.66e-4 l -2.8e-5,-7.9e-5 c 0.01536,0.0038 0.01982,0.0095 0.02211,0.01536 9.34e-4,0.0023 0.0015,0.0047 0.0023,0.007 3.71e-4,0.0011 7.97e-4,0.0022 0.0013,0.0032 4e-6,1.8e-5 1e-5,3.5e-5 1e-5,4.4e-5 1.2e-5,2.6e-5 1.8e-5,5.2e-5 3e-5,7e-5 1.68e-4,0.0015 5.72e-4,0.003 0.0011,0.0046 0.0016,0.0046 0.0043,0.0094 0.0057,0.01405 0.0019,0.0062 0.0014,0.01231 -0.0076,0.01764 -0.05631,2.3e-5 -0.113066,-10e-4 -0.169026,-6.1e-5 -0.02163,1.54e-4 -0.04433,6.22e-4 -0.065835,-0.0025 z m 0.077398,0.167159 c -0.0265,-0.0011 -0.02781,-0.01216 -0.0331,-0.01873 -10e-6,-3.3e-5 -2.5e-5,-5.8e-5 -3.4e-5,-8.9e-5 -2.1e-5,-2.5e-5 -4.2e-5,-6.7e-5 -5.8e-5,-8.9e-5 -8.94e-4,-0.0031 -0.0025,-0.0063 -0.0042,-0.0095 -8.29e-4,-0.0016 -0.0017,-0.0031 -0.0024,-0.0047 -0.004,-0.0082 -0.0063,-0.01637 0.004,-0.02333 0.0381,-0.0042 0.08306,-9.47e-4 0.123997,-0.0019 0.03856,9.54e-4 0.07864,-0.0025 0.116467,0.0026 l 0.0018,0.002 -6e-6,-1.7e-5 c 0.0047,0.0078 0.0085,0.01574 0.01119,0.02364 0.0027,0.0078 0.0045,0.01564 0.0055,0.02337 -0.0012,0.0086 -0.03474,0.0069 -0.05353,0.0073 -0.05685,-0.0011 -0.112822,0.0012 -0.169677,-6.46e-4 z m 0.05283,0.157712 c -0.02345,-0.0024 -0.02228,-0.01187 -0.02633,-0.01796 -1.1e-5,-4.9e-5 -3.7e-5,-9.8e-5 -4.7e-5,-1.45e-4 -1.1e-5,-1.6e-5 -1.5e-5,-3.1e-5 -2.6e-5,-4.7e-5 -3.45e-4,-0.0016 -8.99e-4,-0.0031 -0.0015,-0.0047 -0.0013,-0.0033 -0.0031,-0.0066 -0.0046,-0.01 -0.0036,-0.0083 -0.0051,-0.01659 0.008,-0.0235 0.0662,3.95e-4 0.132163,-1.64e-4 0.1984,1.82e-4 l -2.6e-5,-7.2e-5 c 0.01577,-4.54e-4 0.03765,0.0025 0.03771,0.0089 0.0031,0.0071 0.0064,0.01432 0.0089,0.02146 0.0025,0.0071 0.0042,0.01425 0.0042,0.02128 -0.01032,0.0069 -0.03949,0.0044 -0.05965,0.0049 -0.05557,-0.0015 -0.109044,0.0052 -0.165035,-3.48e-4 z m 0.378017,0.01998 c -0.07999,-0.249412 -0.16684,-0.517841 -0.261373,-0.807532 0.612104,-8.35e-4 1.224694,-5.36e-4 1.837006,-2.8e-4 l -4e-6,-4.1e-5 c 0.0041,0.06025 0.01345,0.11959 0.01417,0.178074 0.01667,0.166682 0.02764,0.326059 0.04071,0.478593 0.0041,0.05115 0.0087,0.101567 0.011,0.151233 -0.105789,0.002 -0.211839,0.0022 -0.317975,0.0019 -0.189157,6.79e-4 -0.379057,-0.0032 -0.567668,-3.8e-5 -0.194382,-3.98e-4 -0.388421,0.0011 -0.583194,-0.0012 -0.0576,-2.13e-4 -0.114863,6.42e-4 -0.172722,-7.75e-4 z m -0.334867,0.128193 c -0.01506,-0.01068 -0.01331,-0.02228 -0.01875,-0.03338 -9e-6,-5.3e-5 -2.6e-5,-1.11e-4 -3.9e-5,-1.66e-4 -1.5e-5,-3e-5 -2.4e-5,-6.1e-5 -3.8e-5,-9.1e-5 -9e-4,-0.0059 -0.0067,-0.01453 0.01413,-0.01677 0.02335,-0.0023 0.0493,-0.0012 0.07406,-0.0013 0.04294,3.96e-4 0.08605,-0.0012 0.129317,0.002 0.0089,4.35e-4 0.01841,0.0025 0.02047,0.0055 l 3.2e-5,9.4e-5 c 0.0045,0.0067 0.0077,0.01355 0.01003,0.02031 0.0023,0.0068 0.0038,0.01351 0.0047,0.02021 2.67e-4,0.006 -0.02206,0.0069 -0.03674,0.0074 -0.04507,7.76e-4 -0.09078,-1.8e-5 -0.136068,3.7e-4 -0.02004,-3.24e-4 -0.04351,7.36e-4 -0.061,-0.0042 z m 0.06779,0.146731 c -0.01739,-0.0012 -0.01871,-0.0079 -0.02205,-0.01208 -0.0024,-0.0055 -0.0052,-0.01101 -0.0073,-0.01653 -0.0021,-0.0055 -0.0033,-0.0111 -0.0025,-0.01658 8.33e-4,-0.0078 0.03451,-0.0053 0.05199,-0.0061 0.06051,0.0012 0.121663,-0.0029 0.181845,0.0036 l -8e-6,-2.2e-5 c 0.0039,0.01002 0.0086,0.02001 0.01162,0.02993 10e-4,0.0033 0.0019,0.0066 0.0025,0.01 0.0013,0.0032 -0.0013,0.0069 -0.01192,0.0078 -0.02827,0.0018 -0.05852,5.56e-4 -0.08771,8.15e-4 -0.03879,-3.13e-4 -0.07727,0.0016 -0.116473,-7.85e-4 z m 0.05813,0.138704 c -0.01593,-7.13e-4 -0.02218,-0.0062 -0.02557,-0.01025 -0.0061,-0.0085 -0.0087,-0.01705 -0.01086,-0.02557 -3e-6,-2.1e-5 -4e-6,-4.3e-5 -2e-6,-5.6e-5 -1.2e-5,-4.2e-5 -2.8e-5,-7.9e-5 -3.5e-5,-1.16e-4 -2.36e-4,-0.004 -0.0015,-0.0086 0.0076,-0.0114 0.04953,-0.0035 0.103306,6.54e-4 0.153911,-0.0015 0.02222,-0.0011 0.04552,-5.42e-4 0.0675,0.0024 l 3e-6,7e-6 c 0.0045,0.01269 0.01082,0.02533 0.01256,0.03785 7e-6,2e-5 -3e-5,4.2e-5 -2.6e-5,5.5e-5 3e-6,3.4e-5 1.9e-5,7.4e-5 2.3e-5,1.13e-4 0.0015,0.0044 -0.0077,0.0084 -0.0219,0.009 -0.02886,0.0014 -0.05916,-2e-6 -0.0885,4.25e-4 -0.03142,-1.11e-4 -0.06304,0.0013 -0.09479,-0.001 z m 0.04367,0.132177 c -0.0093,-3.42e-4 -0.01409,-0.0036 -0.01659,-0.0059 -0.0033,-0.0037 -0.0053,-0.0074 -0.0068,-0.01108 -0.0016,-0.0037 -0.0026,-0.0075 -0.0041,-0.01121 -0.0013,-0.0058 -0.0049,-0.01226 0.0057,-0.01708 0.03759,-0.0026 0.07838,-8.3e-5 0.116956,-0.0013 0.03157,1.38e-4 0.06675,-0.0019 0.09657,0.0035 l -5e-6,-1.3e-5 c 0.0056,0.0051 0.0087,0.01027 0.01058,0.0155 0.0026,0.0069 0.0033,0.01386 0.0054,0.02072 5.35e-4,0.0017 0.0012,0.0034 0.002,0.005 h -7e-6 c 2.5e-5,5.2e-5 3.6e-5,1.05e-4 6.1e-5,1.58e-4 -0.0392,0.0039 -0.08268,0.0021 -0.124269,0.0025 -0.02837,-1.82e-4 -0.05684,7.84e-4 -0.08549,-7.88e-4 z m 0.105768,0.128309 c -0.02037,-2.62e-4 -0.04224,8.84e-4 -0.06181,-0.0023 -0.01047,-0.0031 -0.01398,-0.0071 -0.01613,-0.01111 -8.55e-4,-0.0016 -0.0015,-0.0032 -0.0023,-0.0048 -3.66e-4,-7.26e-4 -7.49e-4,-0.0015 -0.0012,-0.0022 0,-4e-6 -5e-6,-1.3e-5 -5e-6,-1.9e-5 -3.1e-5,-5.1e-5 -5.3e-5,-1.04e-4 -8.3e-5,-1.58e-4 -0.0017,-0.0079 -0.01052,-0.01709 0.004,-0.02391 0.03205,-0.0025 0.06652,-0.0021 0.100337,-0.0012 0.03064,7.66e-4 0.06061,-7.31e-4 0.09123,3.68e-4 0.01039,3.9e-5 0.01735,0.0032 0.0198,0.0059 l -2.5e-5,-7.4e-5 c 0.0037,0.0048 0.0059,0.0096 0.0075,0.01447 0.0017,0.0048 0.0027,0.0096 0.0037,0.01432 0.0015,0.0044 -0.0038,0.01 -0.02084,0.01032 -0.04102,8.85e-4 -0.0829,-4e-5 -0.124209,3.59e-4 z m 0.320169,0.01706 c -0.01562,-1.01e-4 -0.03963,2.6e-4 -0.03787,-0.0064 -0.0299,-0.09033 -0.05939,-0.183395 -0.09062,-0.279297 -0.03667,-0.115703 -0.07769,-0.235696 -0.115341,-0.360183 0.164504,-0.0012 0.329763,-2.06e-4 0.494602,-5e-4 l 0.73804,2.9e-5 c 0.131937,3.56e-4 0.263792,-7.08e-4 0.395747,5.73e-4 l 5e-6,7e-5 c 0.0046,0.06865 0.01365,0.13591 0.01783,0.201757 0.0066,0.112119 0.01687,0.220483 0.02658,0.325245 0.0045,0.0397 0.0041,0.07889 0.0086,0.117601 -0.0645,0.0018 -0.129528,4.55e-4 -0.194221,10e-4 -0.414376,4.16e-4 -0.828987,-2.94e-4 -1.24328,9.3e-5 z m -0.301306,0.104591 c -0.01484,-2.51e-4 -0.03751,1.64e-4 -0.04409,-0.0051 -0.0081,-0.0081 -0.01158,-0.0164 -0.01265,-0.02465 -3.77e-4,-0.0028 -4.94e-4,-0.0056 -3.48e-4,-0.0084 -0.0014,-0.0064 0.02546,-0.0056 0.04062,-0.0061 0.04133,2.19e-4 0.08268,6.41e-4 0.123638,-4.3e-5 0.01587,4.48e-4 0.04029,-2.17e-4 0.04935,0.0047 l -2.1e-5,-6.3e-5 c 0.0041,0.0052 0.0065,0.01051 0.0083,0.01578 0.0016,0.0045 0.0027,0.009 0.0038,0.01349 1.76e-4,6.32e-4 3.32e-4,0.0013 5.02e-4,0.0019 1e-5,1.8e-5 0,3.7e-5 1e-5,5.5e-5 l 4.6e-5,1.77e-4 c 0.0029,0.0047 -0.01144,0.0085 -0.02708,0.0083 -0.04728,7.3e-5 -0.09478,-1.81e-4 -0.1421,-4.6e-5 z m 0.06318,0.117945 c -0.01953,-2.52e-4 -0.04152,9.07e-4 -0.05939,-0.0028 -0.0078,-0.006 -0.01136,-0.01219 -0.01341,-0.01842 -0.002,-0.0062 -0.0023,-0.01242 -0.0034,-0.01855 0.01653,-0.0022 0.03461,-0.0035 0.05371,-0.0032 0.04423,3.07e-4 0.08822,-4.91e-4 0.132655,5.85e-4 l 3.1e-5,8.8e-5 c 0.01252,-6.1e-5 0.02476,0.003 0.02626,0.0065 0.0042,0.0067 0.0066,0.01347 0.0082,0.02018 5.67e-4,0.0023 0.0011,0.0045 0.0015,0.0068 0.002,0.004 -0.0063,0.0083 -0.02135,0.0083 -0.04117,0.0011 -0.08335,1.06e-4 -0.124865,5.13e-4 z m -0.01347,0.112136 c -0.01295,-0.0088 -0.01575,-0.01805 -0.01829,-0.02717 -6e-6,-2.4e-5 -6e-6,-4.2e-5 -10e-6,-6.3e-5 -1.1e-5,-4.1e-5 -2.8e-5,-8.5e-5 -3.9e-5,-1.26e-4 -8.94e-4,-0.0043 -0.0017,-0.009 0.0071,-0.01255 0.06108,-0.0017 0.123941,-5.3e-4 0.185937,-6.18e-4 0.0046,0.0011 0.0091,0.0022 0.01372,0.0033 l 1.4e-5,4e-5 c 0.0026,0.0056 0.0049,0.01127 0.0068,0.0169 0.0011,0.0032 0.0017,0.0065 0.0025,0.0097 5.82e-4,0.0023 0.0014,0.0046 0.0018,0.007 l -7e-6,3e-6 c 10e-6,6e-5 3.6e-5,1.18e-4 4.8e-5,1.83e-4 -0.0036,0.0011 -0.0073,0.0022 -0.01085,0.0033 -0.06273,7.27e-4 -0.125468,9.6e-4 -0.188798,1.01e-4 z m 0.04094,0.108306 c -0.01327,-0.009 -0.01535,-0.01852 -0.01797,-0.02782 -2e-6,-2.3e-5 -7e-6,-4.3e-5 -8e-6,-6.6e-5 l -2e-5,-6.9e-5 c -4.49e-4,-0.0034 -0.0015,-0.007 0.0048,-0.0098 0.0334,-0.0013 0.06808,-4.26e-4 0.102016,-6.25e-4 0.03196,2.84e-4 0.06471,-0.0013 0.0963,0.0021 l -4e-6,-1.1e-5 c 0.002,0.0071 0.0082,0.0143 0.01047,0.02142 0.0014,0.0042 0.0015,0.0085 -0.0016,0.0126 -0.0056,0.0029 -0.01956,0.0023 -0.03014,0.0026 -0.05474,-3.37e-4 -0.108852,10e-4 -0.163886,-3.09e-4 z m 0.0474,0.10418 c -0.01209,-6.48e-4 -0.01514,-0.0046 -0.01727,-0.0072 -0.0015,-0.0023 -0.0027,-0.0046 -0.0037,-0.0069 -0.0031,-0.0069 -0.0042,-0.01379 -0.0047,-0.02068 0.03915,-0.005 0.0853,-0.0032 0.128643,-0.0036 0.02284,3.83e-4 0.05222,-9.31e-4 0.0703,0.0042 l -3e-6,-1.1e-5 c 0.004,0.0053 0.0061,0.01059 0.0076,0.01588 0.0016,0.0053 0.0025,0.0106 0.0044,0.01588 -0.02034,0.0044 -0.04891,0.0029 -0.0743,0.0031 -0.03697,-2.97e-4 -0.07372,0.0012 -0.110984,-5.94e-4 z m 0.307492,0.01335 c -0.0062,-0.0213 -0.01877,-0.0427 -0.02407,-0.06433 -0.0065,-0.03715 -0.02242,-0.07486 -0.03376,-0.113055 -0.01,-0.0307 -0.01984,-0.06172 -0.03014,-0.09309 -0.01392,-0.02636 -0.01908,-0.05303 -0.02886,-0.07991 -0.0076,-0.02654 -0.01976,-0.05332 -0.02312,-0.0803 -0.01004,-0.03115 -0.02008,-0.06263 -0.03068,-0.09444 0.300764,-6.4e-4 0.601634,-7.31e-4 0.902655,-6.94e-4 0.188117,0.001 0.376086,-2.51e-4 0.564141,7.51e-4 l -6e-6,-7.1e-5 6e-6,7.1e-5 c 0.0041,0.0712 0.01346,0.140748 0.01805,0.208702 0.0098,0.109424 0.01644,0.214833 0.02476,0.316436 -0.389218,0.0013 -0.778972,3.49e-4 -1.168354,6.18e-4 -0.05692,-3.23e-4 -0.113618,7.52e-4 -0.170753,-7.26e-4 z"
         id="path633"
         style="fill:#ffffff;stroke-width:0.0194633" />
    </g>
    <g
       id="g91"
       transform="matrix(0.0553072,-0.02406571,0.02406571,0.0553072,-19.110605,20.765281)"
       style="fill:#ffffff"
       clip-path="url(#clipPath701)">
      <path
         d="m 610.9518,490.0164 c 0,-61.2114 -49.6741,-110.7952 -110.8723,-110.7952 l 0.006,-0.006 c -54.955,0 -100.5497,39.9919 -109.2975,92.4532 l -13.5889,2.5851 c -15.9772,-26.9918 -45.3812,-45.1012 -79.0321,-45.1012 -50.7037,0 -91.7867,41.081 -91.7867,91.7859 0,43.1135 29.7078,79.2568 69.7775,89.1191 v 10.2549 H 257.567 l -0.0838,-0.8345 -22.0089,-8.1684 H 220.052 l 24.3427,50.6859 9.0036,-2.4179 5.0016,-8.17 h 17.7576 v 114.6309 h 29.4279 l -3.4175,25.5102 -70.0282,13.339 -15.0886,-7.8429 -56.3567,10.7769 3.9185,31.5864 56.6066,-10.7508 13.0882,-13.1788 76.1133,-16.4069 5.4182,-33.0258 h 279.366 V 575.4672 h -24.5083 c 24.5693,-20.328 40.2549,-51.0537 40.2549,-85.4508 z M 298.4044,562.143 c -25.0474,0 -45.3524,-20.305 -45.3524,-45.3527 0,-25.0464 20.305,-45.3514 45.3524,-45.3514 25.0462,0 45.3512,20.3049 45.3512,45.3514 0,25.0477 -20.305,45.3527 -45.3512,45.3527 z m 73.6261,13.32 c 6.0137,-8.1366 10.6796,-17.301 13.7553,-27.1794 l 18.0078,-3.4184 v 0.002 c 6.6599,11.6813 15.3685,22.073 25.6776,30.5963 z m 126.4541,-31.995 c -30.9395,0 -56.0221,-25.0826 -56.0221,-56.0221 0,-30.9409 25.0826,-56.0237 56.0221,-56.0237 30.9421,0 56.0236,25.0828 56.0236,56.0237 0,30.9394 -25.0814,56.0221 -56.0236,56.0221 z m 74.7102,194.0593 c 0,5.5266 -4.4783,10.0048 -10.0032,10.0048 -5.5253,0 -10.0035,-4.4783 -10.0035,-10.0048 0,-5.5237 4.4782,-10.0035 10.0035,-10.0035 5.5249,-1e-4 10.0032,4.4797 10.0032,10.0035 z"
         id="path630"
         style="fill:#ffffff" />
      <path
         d="m 294.0736,484.8243 c -4.0588,0 -7.3615,3.2642 -7.3615,7.3223 0,4.0596 3.3026,7.3615 7.3615,7.3615 4.0589,0 7.3615,-3.3019 7.3615,-7.3615 0,-4.0581 -3.3027,-7.3223 -7.3615,-7.3223 z"
         id="path627"
         style="fill:#ffffff" />
      <path
         d="m 316.7886,498.6022 c -4.0581,0 -7.3616,3.3035 -7.3616,7.3631 0,4.058 3.3035,7.3615 7.3616,7.3615 4.0594,0 7.3622,-3.3035 7.3622,-7.3615 0,-4.0595 -3.3035,-7.3631 -7.3622,-7.3631 z"
         id="path624"
         style="fill:#ffffff" />
      <path
         d="m 284.0338,511.7522 c 0,-4.0596 -3.2641,-7.3616 -7.3222,-7.3616 -4.0596,0 -7.3624,3.3021 -7.3624,7.3616 0,4.0594 3.3035,7.3615 7.3624,7.3615 4.0581,-10e-5 7.3222,-3.3034 7.3222,-7.3615 z"
         id="path621"
         style="fill:#ffffff" />
      <path
         d="m 314.1103,524.4672 c -4.0589,0 -7.3615,3.2643 -7.3615,7.3223 0,4.0594 3.3026,7.363 7.3615,7.363 4.0588,0 7.3622,-3.3035 7.3622,-7.363 0,-4.058 -3.3034,-7.3223 -7.3622,-7.3223 z"
         id="path618"
         style="fill:#ffffff" />
      <path
         d="m 286.947,528.9165 c -4.0588,0 -7.3616,3.2627 -7.3616,7.3223 0,4.0579 3.3035,7.3615 7.3616,7.3615 4.0594,0 7.3622,-3.3035 7.3622,-7.3615 -10e-5,-4.0596 -3.3034,-7.3223 -7.3622,-7.3223 z"
         id="path615"
         style="fill:#ffffff" />
      <path
         id="path612"
         d="m 598.5262,682.7614 h 44.0179 l 56.2723,34.0975 V 563.7133 l -0.0102,0.003 -56.2621,34.0947 h -44.0179 z" />
    </g>
  </g>
</svg>
